<svg width="306" height="94" viewBox="0 0 306 94" fill="none" xmlns="http://www.w3.org/2000/svg">
<path d="M147.785 17.605L138.517 15.105L121.835 41.1049L132.566 38.8413L151.028 42.105L151.492 27.6049L159.832 29.1049L153.445 0.104979L147.785 17.605Z" fill="#231F20"/>
<path d="M294.889 88.4255L0.854248 93.1229L36.9554 32.8215L305.184 33.2634L294.889 88.4255Z" fill="#231F20"/>
<path d="M148.932 20.1048L139.664 17.605L129.47 38.6049L133.914 37.9593L146.615 39.6048L148.932 25.1049L156.346 26.6047L153.445 2.10498L148.932 20.1048Z" fill="white"/>
<path d="M19.7109 88.9669L40.9664 33.7885L297.644 35.1437L289.032 84.2208L19.7109 88.9669Z" fill="white"/>
<path d="M100.419 54.215V47.285H102.354V54.215H100.419ZM97.8236 51.665V49.835H104.964V51.665H97.8236ZM107.992 56L112.222 46.43L112.852 47.48H107.197L108.277 46.34V49.19H106.117V45.5H114.532V47.075L110.632 56H107.992ZM123.551 45.32C124.521 45.32 125.356 45.52 126.056 45.92C126.756 46.32 127.296 46.905 127.676 47.675C128.056 48.435 128.246 49.385 128.246 50.525C128.246 51.735 128.016 52.76 127.556 53.6C127.106 54.44 126.481 55.08 125.681 55.52C124.881 55.96 123.951 56.18 122.891 56.18C122.341 56.18 121.811 56.12 121.301 56C120.791 55.88 120.351 55.7 119.981 55.46L120.881 53.675C121.171 53.875 121.481 54.015 121.811 54.095C122.141 54.165 122.486 54.2 122.846 54.2C123.746 54.2 124.461 53.925 124.991 53.375C125.531 52.825 125.801 52.01 125.801 50.93C125.801 50.75 125.796 50.55 125.786 50.33C125.776 50.11 125.751 49.89 125.711 49.67L126.371 50.3C126.201 50.69 125.961 51.02 125.651 51.29C125.341 51.55 124.981 51.75 124.571 51.89C124.161 52.02 123.701 52.085 123.191 52.085C122.521 52.085 121.911 51.95 121.361 51.68C120.821 51.41 120.386 51.03 120.056 50.54C119.736 50.05 119.576 49.475 119.576 48.815C119.576 48.095 119.751 47.475 120.101 46.955C120.461 46.435 120.941 46.035 121.541 45.755C122.151 45.465 122.821 45.32 123.551 45.32ZM123.701 47.135C123.351 47.135 123.046 47.2 122.786 47.33C122.526 47.45 122.321 47.63 122.171 47.87C122.021 48.1 121.946 48.375 121.946 48.695C121.946 49.175 122.106 49.56 122.426 49.85C122.756 50.13 123.191 50.27 123.731 50.27C124.081 50.27 124.391 50.205 124.661 50.075C124.941 49.935 125.156 49.745 125.306 49.505C125.456 49.265 125.531 48.995 125.531 48.695C125.531 48.395 125.456 48.13 125.306 47.9C125.166 47.66 124.961 47.475 124.691 47.345C124.421 47.205 124.091 47.135 123.701 47.135ZM134.107 56.18C133.147 56.18 132.312 55.98 131.602 55.58C130.902 55.18 130.362 54.595 129.982 53.825C129.602 53.055 129.412 52.105 129.412 50.975C129.412 49.765 129.637 48.74 130.087 47.9C130.547 47.06 131.177 46.42 131.977 45.98C132.787 45.54 133.717 45.32 134.767 45.32C135.327 45.32 135.862 45.38 136.372 45.5C136.882 45.62 137.322 45.8 137.692 46.04L136.792 47.825C136.502 47.625 136.192 47.49 135.862 47.42C135.532 47.34 135.187 47.3 134.827 47.3C133.917 47.3 133.197 47.575 132.667 48.125C132.137 48.675 131.872 49.49 131.872 50.57C131.872 50.75 131.872 50.95 131.872 51.17C131.882 51.39 131.912 51.61 131.962 51.83L131.287 51.2C131.477 50.81 131.722 50.485 132.022 50.225C132.322 49.955 132.677 49.755 133.087 49.625C133.507 49.485 133.967 49.415 134.467 49.415C135.147 49.415 135.757 49.55 136.297 49.82C136.837 50.09 137.267 50.47 137.587 50.96C137.917 51.45 138.082 52.025 138.082 52.685C138.082 53.395 137.902 54.015 137.542 54.545C137.192 55.065 136.717 55.47 136.117 55.76C135.527 56.04 134.857 56.18 134.107 56.18ZM133.972 54.365C134.312 54.365 134.612 54.305 134.872 54.185C135.142 54.055 135.352 53.87 135.502 53.63C135.652 53.39 135.727 53.115 135.727 52.805C135.727 52.325 135.562 51.945 135.232 51.665C134.912 51.375 134.482 51.23 133.942 51.23C133.582 51.23 133.267 51.3 132.997 51.44C132.727 51.57 132.512 51.755 132.352 51.995C132.202 52.225 132.127 52.495 132.127 52.805C132.127 53.105 132.202 53.375 132.352 53.615C132.502 53.845 132.712 54.03 132.982 54.17C133.252 54.3 133.582 54.365 133.972 54.365ZM142.653 45.32C143.623 45.32 144.458 45.52 145.158 45.92C145.858 46.32 146.398 46.905 146.778 47.675C147.158 48.435 147.348 49.385 147.348 50.525C147.348 51.735 147.118 52.76 146.658 53.6C146.208 54.44 145.583 55.08 144.783 55.52C143.983 55.96 143.053 56.18 141.993 56.18C141.443 56.18 140.913 56.12 140.403 56C139.893 55.88 139.453 55.7 139.083 55.46L139.983 53.675C140.273 53.875 140.583 54.015 140.913 54.095C141.243 54.165 141.588 54.2 141.948 54.2C142.848 54.2 143.563 53.925 144.093 53.375C144.633 52.825 144.903 52.01 144.903 50.93C144.903 50.75 144.898 50.55 144.888 50.33C144.878 50.11 144.853 49.89 144.813 49.67L145.473 50.3C145.303 50.69 145.063 51.02 144.753 51.29C144.443 51.55 144.083 51.75 143.673 51.89C143.263 52.02 142.803 52.085 142.293 52.085C141.623 52.085 141.013 51.95 140.463 51.68C139.923 51.41 139.488 51.03 139.158 50.54C138.838 50.05 138.678 49.475 138.678 48.815C138.678 48.095 138.853 47.475 139.203 46.955C139.563 46.435 140.043 46.035 140.643 45.755C141.253 45.465 141.923 45.32 142.653 45.32ZM142.803 47.135C142.453 47.135 142.148 47.2 141.888 47.33C141.628 47.45 141.423 47.63 141.273 47.87C141.123 48.1 141.048 48.375 141.048 48.695C141.048 49.175 141.208 49.56 141.528 49.85C141.858 50.13 142.293 50.27 142.833 50.27C143.183 50.27 143.493 50.205 143.763 50.075C144.043 49.935 144.258 49.745 144.408 49.505C144.558 49.265 144.633 48.995 144.633 48.695C144.633 48.395 144.558 48.13 144.408 47.9C144.268 47.66 144.063 47.475 143.793 47.345C143.523 47.205 143.193 47.135 142.803 47.135ZM156.452 45.32C157.422 45.32 158.257 45.52 158.957 45.92C159.657 46.32 160.197 46.905 160.577 47.675C160.957 48.435 161.147 49.385 161.147 50.525C161.147 51.735 160.917 52.76 160.457 53.6C160.007 54.44 159.382 55.08 158.582 55.52C157.782 55.96 156.852 56.18 155.792 56.18C155.242 56.18 154.712 56.12 154.202 56C153.692 55.88 153.252 55.7 152.882 55.46L153.782 53.675C154.072 53.875 154.382 54.015 154.712 54.095C155.042 54.165 155.387 54.2 155.747 54.2C156.647 54.2 157.362 53.925 157.892 53.375C158.432 52.825 158.702 52.01 158.702 50.93C158.702 50.75 158.697 50.55 158.687 50.33C158.677 50.11 158.652 49.89 158.612 49.67L159.272 50.3C159.102 50.69 158.862 51.02 158.552 51.29C158.242 51.55 157.882 51.75 157.472 51.89C157.062 52.02 156.602 52.085 156.092 52.085C155.422 52.085 154.812 51.95 154.262 51.68C153.722 51.41 153.287 51.03 152.957 50.54C152.637 50.05 152.477 49.475 152.477 48.815C152.477 48.095 152.652 47.475 153.002 46.955C153.362 46.435 153.842 46.035 154.442 45.755C155.052 45.465 155.722 45.32 156.452 45.32ZM156.602 47.135C156.252 47.135 155.947 47.2 155.687 47.33C155.427 47.45 155.222 47.63 155.072 47.87C154.922 48.1 154.847 48.375 154.847 48.695C154.847 49.175 155.007 49.56 155.327 49.85C155.657 50.13 156.092 50.27 156.632 50.27C156.982 50.27 157.292 50.205 157.562 50.075C157.842 49.935 158.057 49.745 158.207 49.505C158.357 49.265 158.432 48.995 158.432 48.695C158.432 48.395 158.357 48.13 158.207 47.9C158.067 47.66 157.862 47.475 157.592 47.345C157.322 47.205 156.992 47.135 156.602 47.135ZM167.008 56.18C166.048 56.18 165.213 55.98 164.503 55.58C163.803 55.18 163.263 54.595 162.883 53.825C162.503 53.055 162.313 52.105 162.313 50.975C162.313 49.765 162.538 48.74 162.988 47.9C163.448 47.06 164.078 46.42 164.878 45.98C165.688 45.54 166.618 45.32 167.668 45.32C168.228 45.32 168.763 45.38 169.273 45.5C169.783 45.62 170.223 45.8 170.593 46.04L169.693 47.825C169.403 47.625 169.093 47.49 168.763 47.42C168.433 47.34 168.088 47.3 167.728 47.3C166.818 47.3 166.098 47.575 165.568 48.125C165.038 48.675 164.773 49.49 164.773 50.57C164.773 50.75 164.773 50.95 164.773 51.17C164.783 51.39 164.813 51.61 164.863 51.83L164.188 51.2C164.378 50.81 164.623 50.485 164.923 50.225C165.223 49.955 165.578 49.755 165.988 49.625C166.408 49.485 166.868 49.415 167.368 49.415C168.048 49.415 168.658 49.55 169.198 49.82C169.738 50.09 170.168 50.47 170.488 50.96C170.818 51.45 170.983 52.025 170.983 52.685C170.983 53.395 170.803 54.015 170.443 54.545C170.093 55.065 169.618 55.47 169.018 55.76C168.428 56.04 167.758 56.18 167.008 56.18ZM166.873 54.365C167.213 54.365 167.513 54.305 167.773 54.185C168.043 54.055 168.253 53.87 168.403 53.63C168.553 53.39 168.628 53.115 168.628 52.805C168.628 52.325 168.463 51.945 168.133 51.665C167.813 51.375 167.383 51.23 166.843 51.23C166.483 51.23 166.168 51.3 165.898 51.44C165.628 51.57 165.413 51.755 165.253 51.995C165.103 52.225 165.028 52.495 165.028 52.805C165.028 53.105 165.103 53.375 165.253 53.615C165.403 53.845 165.613 54.03 165.883 54.17C166.153 54.3 166.483 54.365 166.873 54.365ZM173.499 56L177.729 46.43L178.359 47.48H172.704L173.784 46.34V49.19H171.624V45.5H180.039V47.075L176.139 56H173.499ZM188.774 56.18C188.044 56.18 187.319 56.085 186.599 55.895C185.879 55.695 185.269 55.415 184.769 55.055L185.714 53.195C186.114 53.485 186.579 53.715 187.109 53.885C187.639 54.055 188.174 54.14 188.714 54.14C189.324 54.14 189.804 54.02 190.154 53.78C190.504 53.54 190.679 53.21 190.679 52.79C190.679 52.39 190.524 52.075 190.214 51.845C189.904 51.615 189.404 51.5 188.714 51.5H187.604V49.895L190.529 46.58L190.799 47.45H185.294V45.5H192.644V47.075L189.734 50.39L188.504 49.685H189.209C190.499 49.685 191.474 49.975 192.134 50.555C192.794 51.135 193.124 51.88 193.124 52.79C193.124 53.38 192.969 53.935 192.659 54.455C192.349 54.965 191.874 55.38 191.234 55.7C190.594 56.02 189.774 56.18 188.774 56.18ZM198.941 56.18C197.981 56.18 197.146 55.98 196.436 55.58C195.736 55.18 195.196 54.595 194.816 53.825C194.436 53.055 194.246 52.105 194.246 50.975C194.246 49.765 194.471 48.74 194.921 47.9C195.381 47.06 196.011 46.42 196.811 45.98C197.621 45.54 198.551 45.32 199.601 45.32C200.161 45.32 200.696 45.38 201.206 45.5C201.716 45.62 202.156 45.8 202.526 46.04L201.626 47.825C201.336 47.625 201.026 47.49 200.696 47.42C200.366 47.34 200.021 47.3 199.661 47.3C198.751 47.3 198.031 47.575 197.501 48.125C196.971 48.675 196.706 49.49 196.706 50.57C196.706 50.75 196.706 50.95 196.706 51.17C196.716 51.39 196.746 51.61 196.796 51.83L196.121 51.2C196.311 50.81 196.556 50.485 196.856 50.225C197.156 49.955 197.511 49.755 197.921 49.625C198.341 49.485 198.801 49.415 199.301 49.415C199.981 49.415 200.591 49.55 201.131 49.82C201.671 50.09 202.101 50.47 202.421 50.96C202.751 51.45 202.916 52.025 202.916 52.685C202.916 53.395 202.736 54.015 202.376 54.545C202.026 55.065 201.551 55.47 200.951 55.76C200.361 56.04 199.691 56.18 198.941 56.18ZM198.806 54.365C199.146 54.365 199.446 54.305 199.706 54.185C199.976 54.055 200.186 53.87 200.336 53.63C200.486 53.39 200.561 53.115 200.561 52.805C200.561 52.325 200.396 51.945 200.066 51.665C199.746 51.375 199.316 51.23 198.776 51.23C198.416 51.23 198.101 51.3 197.831 51.44C197.561 51.57 197.346 51.755 197.186 51.995C197.036 52.225 196.961 52.495 196.961 52.805C196.961 53.105 197.036 53.375 197.186 53.615C197.336 53.845 197.546 54.03 197.816 54.17C198.086 54.3 198.416 54.365 198.806 54.365ZM203.677 53.795V52.16L208.627 45.5H211.177L206.332 52.16L205.147 51.815H213.412V53.795H203.677ZM209.332 56V53.795L209.407 51.815V49.85H211.702V56H209.332ZM218.834 56.18C217.874 56.18 217.039 55.98 216.329 55.58C215.629 55.18 215.089 54.595 214.709 53.825C214.329 53.055 214.139 52.105 214.139 50.975C214.139 49.765 214.364 48.74 214.814 47.9C215.274 47.06 215.904 46.42 216.704 45.98C217.514 45.54 218.444 45.32 219.494 45.32C220.054 45.32 220.589 45.38 221.099 45.5C221.609 45.62 222.049 45.8 222.419 46.04L221.519 47.825C221.229 47.625 220.919 47.49 220.589 47.42C220.259 47.34 219.914 47.3 219.554 47.3C218.644 47.3 217.924 47.575 217.394 48.125C216.864 48.675 216.599 49.49 216.599 50.57C216.599 50.75 216.599 50.95 216.599 51.17C216.609 51.39 216.639 51.61 216.689 51.83L216.014 51.2C216.204 50.81 216.449 50.485 216.749 50.225C217.049 49.955 217.404 49.755 217.814 49.625C218.234 49.485 218.694 49.415 219.194 49.415C219.874 49.415 220.484 49.55 221.024 49.82C221.564 50.09 221.994 50.47 222.314 50.96C222.644 51.45 222.809 52.025 222.809 52.685C222.809 53.395 222.629 54.015 222.269 54.545C221.919 55.065 221.444 55.47 220.844 55.76C220.254 56.04 219.584 56.18 218.834 56.18ZM218.699 54.365C219.039 54.365 219.339 54.305 219.599 54.185C219.869 54.055 220.079 53.87 220.229 53.63C220.379 53.39 220.454 53.115 220.454 52.805C220.454 52.325 220.289 51.945 219.959 51.665C219.639 51.375 219.209 51.23 218.669 51.23C218.309 51.23 217.994 51.3 217.724 51.44C217.454 51.57 217.239 51.755 217.079 51.995C216.929 52.225 216.854 52.495 216.854 52.805C216.854 53.105 216.929 53.375 217.079 53.615C217.229 53.845 217.439 54.03 217.709 54.17C217.979 54.3 218.309 54.365 218.699 54.365ZM43.6417 74.12C42.9717 74.12 42.3717 73.99 41.8417 73.73C41.3217 73.47 40.9167 73.075 40.6267 72.545C40.3367 72.005 40.1917 71.32 40.1917 70.49V65.93H42.5317V70.145C42.5317 70.815 42.6717 71.31 42.9517 71.63C43.2417 71.94 43.6467 72.095 44.1667 72.095C44.5267 72.095 44.8467 72.02 45.1267 71.87C45.4067 71.71 45.6267 71.47 45.7867 71.15C45.9467 70.82 46.0267 70.41 46.0267 69.92V65.93H48.3667V74H46.1467V71.78L46.5517 72.425C46.2817 72.985 45.8817 73.41 45.3517 73.7C44.8317 73.98 44.2617 74.12 43.6417 74.12ZM50.5346 74V62.87H52.8746V74H50.5346ZM55.0463 74V65.93H57.3863V74H55.0463ZM56.2163 64.805C55.7863 64.805 55.4363 64.68 55.1663 64.43C54.8963 64.18 54.7613 63.87 54.7613 63.5C54.7613 63.13 54.8963 62.82 55.1663 62.57C55.4363 62.32 55.7863 62.195 56.2163 62.195C56.6463 62.195 56.9963 62.315 57.2663 62.555C57.5363 62.785 57.6713 63.085 57.6713 63.455C57.6713 63.845 57.5363 64.17 57.2663 64.43C57.0063 64.68 56.6563 64.805 56.2163 64.805ZM64.508 74V72.425L64.358 72.08V69.26C64.358 68.76 64.203 68.37 63.893 68.09C63.593 67.81 63.128 67.67 62.498 67.67C62.068 67.67 61.643 67.74 61.223 67.88C60.813 68.01 60.463 68.19 60.173 68.42L59.333 66.785C59.773 66.475 60.303 66.235 60.923 66.065C61.543 65.895 62.173 65.81 62.813 65.81C64.043 65.81 64.998 66.1 65.678 66.68C66.358 67.26 66.698 68.165 66.698 69.395V74H64.508ZM62.048 74.12C61.418 74.12 60.878 74.015 60.428 73.805C59.978 73.585 59.633 73.29 59.393 72.92C59.153 72.55 59.033 72.135 59.033 71.675C59.033 71.195 59.148 70.775 59.378 70.415C59.618 70.055 59.993 69.775 60.503 69.575C61.013 69.365 61.678 69.26 62.498 69.26H64.643V70.625H62.753C62.203 70.625 61.823 70.715 61.613 70.895C61.413 71.075 61.313 71.3 61.313 71.57C61.313 71.87 61.428 72.11 61.658 72.29C61.898 72.46 62.223 72.545 62.633 72.545C63.023 72.545 63.373 72.455 63.683 72.275C63.993 72.085 64.218 71.81 64.358 71.45L64.718 72.53C64.548 73.05 64.238 73.445 63.788 73.715C63.338 73.985 62.758 74.12 62.048 74.12ZM73.7208 65.81C74.3608 65.81 74.9308 65.94 75.4308 66.2C75.9408 66.45 76.3408 66.84 76.6308 67.37C76.9208 67.89 77.0658 68.56 77.0658 69.38V74H74.7258V69.74C74.7258 69.09 74.5808 68.61 74.2908 68.3C74.0108 67.99 73.6108 67.835 73.0908 67.835C72.7208 67.835 72.3858 67.915 72.0858 68.075C71.7958 68.225 71.5658 68.46 71.3958 68.78C71.2358 69.1 71.1558 69.51 71.1558 70.01V74H68.8158V65.93H71.0508V68.165L70.6308 67.49C70.9208 66.95 71.3358 66.535 71.8758 66.245C72.4158 65.955 73.0308 65.81 73.7208 65.81ZM84.1369 74V72.425L83.9869 72.08V69.26C83.9869 68.76 83.8319 68.37 83.5219 68.09C83.2219 67.81 82.7569 67.67 82.1269 67.67C81.6969 67.67 81.2719 67.74 80.8519 67.88C80.4419 68.01 80.0919 68.19 79.8019 68.42L78.9619 66.785C79.4019 66.475 79.9319 66.235 80.5519 66.065C81.1719 65.895 81.8019 65.81 82.4419 65.81C83.6719 65.81 84.6269 66.1 85.3069 66.68C85.9869 67.26 86.3269 68.165 86.3269 69.395V74H84.1369ZM81.6769 74.12C81.0469 74.12 80.5069 74.015 80.0569 73.805C79.6069 73.585 79.2619 73.29 79.0219 72.92C78.7819 72.55 78.6619 72.135 78.6619 71.675C78.6619 71.195 78.7769 70.775 79.0069 70.415C79.2469 70.055 79.6219 69.775 80.1319 69.575C80.6419 69.365 81.3069 69.26 82.1269 69.26H84.2719V70.625H82.3819C81.8319 70.625 81.4519 70.715 81.2419 70.895C81.0419 71.075 80.9419 71.3 80.9419 71.57C80.9419 71.87 81.0569 72.11 81.2869 72.29C81.5269 72.46 81.8519 72.545 82.2619 72.545C82.6519 72.545 83.0019 72.455 83.3119 72.275C83.6219 72.085 83.8469 71.81 83.9869 71.45L84.3469 72.53C84.1769 73.05 83.8669 73.445 83.4169 73.715C82.9669 73.985 82.3869 74.12 81.6769 74.12ZM93.2147 74.12C92.5347 74.12 91.9397 73.97 91.4297 73.67C90.9197 73.37 90.5197 72.915 90.2297 72.305C89.9497 71.685 89.8097 70.905 89.8097 69.965C89.8097 69.015 89.9447 68.235 90.2147 67.625C90.4847 67.015 90.8747 66.56 91.3847 66.26C91.8947 65.96 92.5047 65.81 93.2147 65.81C93.9747 65.81 94.6547 65.985 95.2547 66.335C95.8647 66.675 96.3447 67.155 96.6947 67.775C97.0547 68.395 97.2347 69.125 97.2347 69.965C97.2347 70.815 97.0547 71.55 96.6947 72.17C96.3447 72.79 95.8647 73.27 95.2547 73.61C94.6547 73.95 93.9747 74.12 93.2147 74.12ZM88.4447 76.91V65.93H90.6797V67.58L90.6347 69.98L90.7847 72.365V76.91H88.4447ZM92.8097 72.2C93.1997 72.2 93.5447 72.11 93.8447 71.93C94.1547 71.75 94.3997 71.495 94.5797 71.165C94.7697 70.825 94.8647 70.425 94.8647 69.965C94.8647 69.495 94.7697 69.095 94.5797 68.765C94.3997 68.435 94.1547 68.18 93.8447 68C93.5447 67.82 93.1997 67.73 92.8097 67.73C92.4197 67.73 92.0697 67.82 91.7597 68C91.4497 68.18 91.2047 68.435 91.0247 68.765C90.8447 69.095 90.7547 69.495 90.7547 69.965C90.7547 70.425 90.8447 70.825 91.0247 71.165C91.2047 71.495 91.4497 71.75 91.7597 71.93C92.0697 72.11 92.4197 72.2 92.8097 72.2ZM102.641 74.12C101.781 74.12 101.016 73.94 100.346 73.58C99.6862 73.22 99.1612 72.73 98.7712 72.11C98.3912 71.48 98.2012 70.765 98.2012 69.965C98.2012 69.155 98.3912 68.44 98.7712 67.82C99.1612 67.19 99.6862 66.7 100.346 66.35C101.016 65.99 101.781 65.81 102.641 65.81C103.491 65.81 104.251 65.99 104.921 66.35C105.591 66.7 106.116 67.185 106.496 67.805C106.876 68.425 107.066 69.145 107.066 69.965C107.066 70.765 106.876 71.48 106.496 72.11C106.116 72.73 105.591 73.22 104.921 73.58C104.251 73.94 103.491 74.12 102.641 74.12ZM102.641 72.2C103.031 72.2 103.381 72.11 103.691 71.93C104.001 71.75 104.246 71.495 104.426 71.165C104.606 70.825 104.696 70.425 104.696 69.965C104.696 69.495 104.606 69.095 104.426 68.765C104.246 68.435 104.001 68.18 103.691 68C103.381 67.82 103.031 67.73 102.641 67.73C102.251 67.73 101.901 67.82 101.591 68C101.281 68.18 101.031 68.435 100.841 68.765C100.661 69.095 100.571 69.495 100.571 69.965C100.571 70.425 100.661 70.825 100.841 71.165C101.031 71.495 101.281 71.75 101.591 71.93C101.901 72.11 102.251 72.2 102.641 72.2ZM107.973 74V72.59L112.743 66.95L113.148 67.73H108.078V65.93H115.038V67.34L110.268 72.98L109.848 72.2H115.173V74H107.973ZM120.035 74.12C119.275 74.12 118.59 73.95 117.98 73.61C117.37 73.26 116.885 72.775 116.525 72.155C116.175 71.535 116 70.805 116 69.965C116 69.115 116.175 68.38 116.525 67.76C116.885 67.14 117.37 66.66 117.98 66.32C118.59 65.98 119.275 65.81 120.035 65.81C120.715 65.81 121.31 65.96 121.82 66.26C122.33 66.56 122.725 67.015 123.005 67.625C123.285 68.235 123.425 69.015 123.425 69.965C123.425 70.905 123.29 71.685 123.02 72.305C122.75 72.915 122.36 73.37 121.85 73.67C121.35 73.97 120.745 74.12 120.035 74.12ZM120.44 72.2C120.82 72.2 121.165 72.11 121.475 71.93C121.785 71.75 122.03 71.495 122.21 71.165C122.4 70.825 122.495 70.425 122.495 69.965C122.495 69.495 122.4 69.095 122.21 68.765C122.03 68.435 121.785 68.18 121.475 68C121.165 67.82 120.82 67.73 120.44 67.73C120.05 67.73 119.7 67.82 119.39 68C119.08 68.18 118.83 68.435 118.64 68.765C118.46 69.095 118.37 69.495 118.37 69.965C118.37 70.425 118.46 70.825 118.64 71.165C118.83 71.495 119.08 71.75 119.39 71.93C119.7 72.11 120.05 72.2 120.44 72.2ZM122.555 74V72.35L122.6 69.95L122.45 67.565V62.87H124.79V74H122.555ZM131.86 65.81C132.5 65.81 133.07 65.94 133.57 66.2C134.08 66.45 134.48 66.84 134.77 67.37C135.06 67.89 135.205 68.56 135.205 69.38V74H132.865V69.74C132.865 69.09 132.72 68.61 132.43 68.3C132.15 67.99 131.75 67.835 131.23 67.835C130.86 67.835 130.525 67.915 130.225 68.075C129.935 68.225 129.705 68.46 129.535 68.78C129.375 69.1 129.295 69.51 129.295 70.01V74H126.955V65.93H129.19V68.165L128.77 67.49C129.06 66.95 129.475 66.535 130.015 66.245C130.555 65.955 131.17 65.81 131.86 65.81ZM142.277 74V72.425L142.127 72.08V69.26C142.127 68.76 141.972 68.37 141.662 68.09C141.362 67.81 140.897 67.67 140.267 67.67C139.837 67.67 139.412 67.74 138.992 67.88C138.582 68.01 138.232 68.19 137.942 68.42L137.102 66.785C137.542 66.475 138.072 66.235 138.692 66.065C139.312 65.895 139.942 65.81 140.582 65.81C141.812 65.81 142.767 66.1 143.447 66.68C144.127 67.26 144.467 68.165 144.467 69.395V74H142.277ZM139.817 74.12C139.187 74.12 138.647 74.015 138.197 73.805C137.747 73.585 137.402 73.29 137.162 72.92C136.922 72.55 136.802 72.135 136.802 71.675C136.802 71.195 136.917 70.775 137.147 70.415C137.387 70.055 137.762 69.775 138.272 69.575C138.782 69.365 139.447 69.26 140.267 69.26H142.412V70.625H140.522C139.972 70.625 139.592 70.715 139.382 70.895C139.182 71.075 139.082 71.3 139.082 71.57C139.082 71.87 139.197 72.11 139.427 72.29C139.667 72.46 139.992 72.545 140.402 72.545C140.792 72.545 141.142 72.455 141.452 72.275C141.762 72.085 141.987 71.81 142.127 71.45L142.487 72.53C142.317 73.05 142.007 73.445 141.557 73.715C141.107 73.985 140.527 74.12 139.817 74.12ZM148.519 72.35L148.579 69.5L152.344 65.93H155.134L151.519 69.605L150.304 70.595L148.519 72.35ZM146.584 74V62.87H148.924V74H146.584ZM152.599 74L149.869 70.61L151.339 68.795L155.434 74H152.599ZM159.99 74.12C159.13 74.12 158.365 73.94 157.695 73.58C157.035 73.22 156.51 72.73 156.12 72.11C155.74 71.48 155.55 70.765 155.55 69.965C155.55 69.155 155.74 68.44 156.12 67.82C156.51 67.19 157.035 66.7 157.695 66.35C158.365 65.99 159.13 65.81 159.99 65.81C160.84 65.81 161.6 65.99 162.27 66.35C162.94 66.7 163.465 67.185 163.845 67.805C164.225 68.425 164.415 69.145 164.415 69.965C164.415 70.765 164.225 71.48 163.845 72.11C163.465 72.73 162.94 73.22 162.27 73.58C161.6 73.94 160.84 74.12 159.99 74.12ZM159.99 72.2C160.38 72.2 160.73 72.11 161.04 71.93C161.35 71.75 161.595 71.495 161.775 71.165C161.955 70.825 162.045 70.425 162.045 69.965C162.045 69.495 161.955 69.095 161.775 68.765C161.595 68.435 161.35 68.18 161.04 68C160.73 67.82 160.38 67.73 159.99 67.73C159.6 67.73 159.25 67.82 158.94 68C158.63 68.18 158.38 68.435 158.19 68.765C158.01 69.095 157.92 69.495 157.92 69.965C157.92 70.425 158.01 70.825 158.19 71.165C158.38 71.495 158.63 71.75 158.94 71.93C159.25 72.11 159.6 72.2 159.99 72.2ZM167.949 74L164.559 65.93H166.974L169.794 72.875H168.594L171.519 65.93H173.769L170.364 74H167.949ZM179.41 74V72.425L179.26 72.08V69.26C179.26 68.76 179.105 68.37 178.795 68.09C178.495 67.81 178.03 67.67 177.4 67.67C176.97 67.67 176.545 67.74 176.125 67.88C175.715 68.01 175.365 68.19 175.075 68.42L174.235 66.785C174.675 66.475 175.205 66.235 175.825 66.065C176.445 65.895 177.075 65.81 177.715 65.81C178.945 65.81 179.9 66.1 180.58 66.68C181.26 67.26 181.6 68.165 181.6 69.395V74H179.41ZM176.95 74.12C176.32 74.12 175.78 74.015 175.33 73.805C174.88 73.585 174.535 73.29 174.295 72.92C174.055 72.55 173.935 72.135 173.935 71.675C173.935 71.195 174.05 70.775 174.28 70.415C174.52 70.055 174.895 69.775 175.405 69.575C175.915 69.365 176.58 69.26 177.4 69.26H179.545V70.625H177.655C177.105 70.625 176.725 70.715 176.515 70.895C176.315 71.075 176.215 71.3 176.215 71.57C176.215 71.87 176.33 72.11 176.56 72.29C176.8 72.46 177.125 72.545 177.535 72.545C177.925 72.545 178.275 72.455 178.585 72.275C178.895 72.085 179.12 71.81 179.26 71.45L179.62 72.53C179.45 73.05 179.14 73.445 178.69 73.715C178.24 73.985 177.66 74.12 176.95 74.12ZM190.423 77.09C189.343 77.09 188.363 76.915 187.483 76.565C186.603 76.225 185.843 75.745 185.203 75.125C184.573 74.505 184.083 73.775 183.733 72.935C183.393 72.095 183.223 71.18 183.223 70.19C183.223 69.21 183.393 68.305 183.733 67.475C184.083 66.645 184.578 65.92 185.218 65.3C185.858 64.68 186.623 64.2 187.513 63.86C188.403 63.52 189.393 63.35 190.483 63.35C191.533 63.35 192.493 63.515 193.363 63.845C194.233 64.165 194.983 64.62 195.613 65.21C196.243 65.8 196.728 66.495 197.068 67.295C197.408 68.085 197.578 68.95 197.578 69.89C197.578 70.78 197.448 71.54 197.188 72.17C196.938 72.8 196.583 73.28 196.123 73.61C195.663 73.94 195.123 74.105 194.503 74.105C193.823 74.105 193.283 73.905 192.883 73.505C192.483 73.105 192.283 72.52 192.283 71.75V71.06L192.328 70.25L192.193 68.075V66.635H194.233V71.495C194.233 71.855 194.303 72.105 194.443 72.245C194.583 72.385 194.753 72.455 194.953 72.455C195.183 72.455 195.378 72.365 195.538 72.185C195.708 72.005 195.838 71.73 195.928 71.36C196.018 70.98 196.063 70.5 196.063 69.92C196.063 69.16 195.928 68.465 195.658 67.835C195.398 67.205 195.018 66.66 194.518 66.2C194.028 65.74 193.438 65.39 192.748 65.15C192.068 64.9 191.313 64.775 190.483 64.775C189.653 64.775 188.893 64.91 188.203 65.18C187.513 65.45 186.923 65.83 186.433 66.32C185.943 66.8 185.563 67.37 185.293 68.03C185.033 68.69 184.903 69.41 184.903 70.19C184.903 70.99 185.033 71.725 185.293 72.395C185.553 73.055 185.923 73.625 186.403 74.105C186.893 74.595 187.478 74.975 188.158 75.245C188.838 75.515 189.593 75.65 190.423 75.65C190.903 75.65 191.398 75.595 191.908 75.485C192.418 75.385 192.908 75.22 193.378 74.99L193.858 76.37C193.398 76.6 192.858 76.775 192.238 76.895C191.628 77.025 191.023 77.09 190.423 77.09ZM189.883 74.105C189.243 74.105 188.658 73.95 188.128 73.64C187.608 73.32 187.193 72.875 186.883 72.305C186.573 71.725 186.418 71.06 186.418 70.31C186.418 69.56 186.568 68.9 186.868 68.33C187.178 67.76 187.593 67.32 188.113 67.01C188.643 66.69 189.233 66.53 189.883 66.53C190.543 66.53 191.108 66.68 191.578 66.98C192.048 67.28 192.408 67.71 192.658 68.27C192.908 68.83 193.033 69.51 193.033 70.31C193.033 71.1 192.913 71.78 192.673 72.35C192.433 72.92 192.078 73.355 191.608 73.655C191.148 73.955 190.573 74.105 189.883 74.105ZM190.348 72.38C190.708 72.38 191.028 72.3 191.308 72.14C191.598 71.97 191.823 71.73 191.983 71.42C192.143 71.11 192.223 70.74 192.223 70.31C192.223 69.87 192.143 69.5 191.983 69.2C191.823 68.9 191.598 68.67 191.308 68.51C191.028 68.35 190.708 68.27 190.348 68.27C189.988 68.27 189.668 68.35 189.388 68.51C189.108 68.67 188.888 68.905 188.728 69.215C188.568 69.515 188.488 69.88 188.488 70.31C188.488 70.74 188.568 71.11 188.728 71.42C188.888 71.72 189.108 71.955 189.388 72.125C189.668 72.295 189.988 72.38 190.348 72.38ZM203.041 77.03C202.281 77.03 201.546 76.935 200.836 76.745C200.136 76.565 199.551 76.29 199.081 75.92L200.011 74.24C200.351 74.52 200.781 74.74 201.301 74.9C201.831 75.07 202.351 75.155 202.861 75.155C203.691 75.155 204.291 74.97 204.661 74.6C205.041 74.23 205.231 73.68 205.231 72.95V71.735L205.381 69.71L205.351 67.67V65.93H207.571V72.65C207.571 74.15 207.181 75.255 206.401 75.965C205.621 76.675 204.501 77.03 203.041 77.03ZM202.681 73.61C201.931 73.61 201.251 73.45 200.641 73.13C200.041 72.8 199.556 72.345 199.186 71.765C198.826 71.175 198.646 70.49 198.646 69.71C198.646 68.92 198.826 68.235 199.186 67.655C199.556 67.065 200.041 66.61 200.641 66.29C201.251 65.97 201.931 65.81 202.681 65.81C203.361 65.81 203.961 65.95 204.481 66.23C205.001 66.5 205.406 66.925 205.696 67.505C205.986 68.075 206.131 68.81 206.131 69.71C206.131 70.6 205.986 71.335 205.696 71.915C205.406 72.485 205.001 72.91 204.481 73.19C203.961 73.47 203.361 73.61 202.681 73.61ZM203.146 71.69C203.556 71.69 203.921 71.61 204.241 71.45C204.561 71.28 204.811 71.045 204.991 70.745C205.171 70.445 205.261 70.1 205.261 69.71C205.261 69.31 205.171 68.965 204.991 68.675C204.811 68.375 204.561 68.145 204.241 67.985C203.921 67.815 203.556 67.73 203.146 67.73C202.736 67.73 202.371 67.815 202.051 67.985C201.731 68.145 201.476 68.375 201.286 68.675C201.106 68.965 201.016 69.31 201.016 69.71C201.016 70.1 201.106 70.445 201.286 70.745C201.476 71.045 201.731 71.28 202.051 71.45C202.371 71.61 202.736 71.69 203.146 71.69ZM220.083 65.81C220.723 65.81 221.288 65.94 221.778 66.2C222.278 66.45 222.668 66.84 222.948 67.37C223.238 67.89 223.383 68.56 223.383 69.38V74H221.043V69.74C221.043 69.09 220.908 68.61 220.638 68.3C220.368 67.99 219.988 67.835 219.498 67.835C219.158 67.835 218.853 67.915 218.583 68.075C218.313 68.225 218.103 68.455 217.953 68.765C217.803 69.075 217.728 69.47 217.728 69.95V74H215.388V69.74C215.388 69.09 215.253 68.61 214.983 68.3C214.723 67.99 214.348 67.835 213.858 67.835C213.518 67.835 213.213 67.915 212.943 68.075C212.673 68.225 212.463 68.455 212.313 68.765C212.163 69.075 212.088 69.47 212.088 69.95V74H209.748V65.93H211.983V68.135L211.563 67.49C211.843 66.94 212.238 66.525 212.748 66.245C213.268 65.955 213.858 65.81 214.518 65.81C215.258 65.81 215.903 66 216.453 66.38C217.013 66.75 217.383 67.32 217.563 68.09L216.738 67.865C217.008 67.235 217.438 66.735 218.028 66.365C218.628 65.995 219.313 65.81 220.083 65.81ZM230.431 74V72.425L230.281 72.08V69.26C230.281 68.76 230.126 68.37 229.816 68.09C229.516 67.81 229.051 67.67 228.421 67.67C227.991 67.67 227.566 67.74 227.146 67.88C226.736 68.01 226.386 68.19 226.096 68.42L225.256 66.785C225.696 66.475 226.226 66.235 226.846 66.065C227.466 65.895 228.096 65.81 228.736 65.81C229.966 65.81 230.921 66.1 231.601 66.68C232.281 67.26 232.621 68.165 232.621 69.395V74H230.431ZM227.971 74.12C227.341 74.12 226.801 74.015 226.351 73.805C225.901 73.585 225.556 73.29 225.316 72.92C225.076 72.55 224.956 72.135 224.956 71.675C224.956 71.195 225.071 70.775 225.301 70.415C225.541 70.055 225.916 69.775 226.426 69.575C226.936 69.365 227.601 69.26 228.421 69.26H230.566V70.625H228.676C228.126 70.625 227.746 70.715 227.536 70.895C227.336 71.075 227.236 71.3 227.236 71.57C227.236 71.87 227.351 72.11 227.581 72.29C227.821 72.46 228.146 72.545 228.556 72.545C228.946 72.545 229.296 72.455 229.606 72.275C229.916 72.085 230.141 71.81 230.281 71.45L230.641 72.53C230.471 73.05 230.161 73.445 229.711 73.715C229.261 73.985 228.681 74.12 227.971 74.12ZM234.739 74V65.93H237.079V74H234.739ZM235.909 64.805C235.479 64.805 235.129 64.68 234.859 64.43C234.589 64.18 234.454 63.87 234.454 63.5C234.454 63.13 234.589 62.82 234.859 62.57C235.129 62.32 235.479 62.195 235.909 62.195C236.339 62.195 236.689 62.315 236.959 62.555C237.229 62.785 237.364 63.085 237.364 63.455C237.364 63.845 237.229 64.17 236.959 64.43C236.699 64.68 236.349 64.805 235.909 64.805ZM239.25 74V62.87H241.59V74H239.25ZM244.647 74.12C244.247 74.12 243.902 73.985 243.612 73.715C243.332 73.435 243.192 73.08 243.192 72.65C243.192 72.22 243.332 71.875 243.612 71.615C243.902 71.345 244.247 71.21 244.647 71.21C245.057 71.21 245.402 71.345 245.682 71.615C245.962 71.875 246.102 72.22 246.102 72.65C246.102 73.08 245.962 73.435 245.682 73.715C245.402 73.985 245.057 74.12 244.647 74.12ZM251.5 74.12C250.63 74.12 249.855 73.945 249.175 73.595C248.495 73.235 247.96 72.74 247.57 72.11C247.19 71.48 247 70.765 247 69.965C247 69.155 247.19 68.44 247.57 67.82C247.96 67.19 248.495 66.7 249.175 66.35C249.855 65.99 250.63 65.81 251.5 65.81C252.35 65.81 253.09 65.99 253.72 66.35C254.35 66.7 254.815 67.205 255.115 67.865L253.3 68.84C253.09 68.46 252.825 68.18 252.505 68C252.195 67.82 251.855 67.73 251.485 67.73C251.085 67.73 250.725 67.82 250.405 68C250.085 68.18 249.83 68.435 249.64 68.765C249.46 69.095 249.37 69.495 249.37 69.965C249.37 70.435 249.46 70.835 249.64 71.165C249.83 71.495 250.085 71.75 250.405 71.93C250.725 72.11 251.085 72.2 251.485 72.2C251.855 72.2 252.195 72.115 252.505 71.945C252.825 71.765 253.09 71.48 253.3 71.09L255.115 72.08C254.815 72.73 254.35 73.235 253.72 73.595C253.09 73.945 252.35 74.12 251.5 74.12ZM260.2 74.12C259.34 74.12 258.575 73.94 257.905 73.58C257.245 73.22 256.72 72.73 256.33 72.11C255.95 71.48 255.76 70.765 255.76 69.965C255.76 69.155 255.95 68.44 256.33 67.82C256.72 67.19 257.245 66.7 257.905 66.35C258.575 65.99 259.34 65.81 260.2 65.81C261.05 65.81 261.81 65.99 262.48 66.35C263.15 66.7 263.675 67.185 264.055 67.805C264.435 68.425 264.625 69.145 264.625 69.965C264.625 70.765 264.435 71.48 264.055 72.11C263.675 72.73 263.15 73.22 262.48 73.58C261.81 73.94 261.05 74.12 260.2 74.12ZM260.2 72.2C260.59 72.2 260.94 72.11 261.25 71.93C261.56 71.75 261.805 71.495 261.985 71.165C262.165 70.825 262.255 70.425 262.255 69.965C262.255 69.495 262.165 69.095 261.985 68.765C261.805 68.435 261.56 68.18 261.25 68C260.94 67.82 260.59 67.73 260.2 67.73C259.81 67.73 259.46 67.82 259.15 68C258.84 68.18 258.59 68.435 258.4 68.765C258.22 69.095 258.13 69.495 258.13 69.965C258.13 70.425 258.22 70.825 258.4 71.165C258.59 71.495 258.84 71.75 259.15 71.93C259.46 72.11 259.81 72.2 260.2 72.2ZM276.524 65.81C277.164 65.81 277.729 65.94 278.219 66.2C278.719 66.45 279.109 66.84 279.389 67.37C279.679 67.89 279.824 68.56 279.824 69.38V74H277.484V69.74C277.484 69.09 277.349 68.61 277.079 68.3C276.809 67.99 276.429 67.835 275.939 67.835C275.599 67.835 275.294 67.915 275.024 68.075C274.754 68.225 274.544 68.455 274.394 68.765C274.244 69.075 274.169 69.47 274.169 69.95V74H271.829V69.74C271.829 69.09 271.694 68.61 271.424 68.3C271.164 67.99 270.789 67.835 270.299 67.835C269.959 67.835 269.654 67.915 269.384 68.075C269.114 68.225 268.904 68.455 268.754 68.765C268.604 69.075 268.529 69.47 268.529 69.95V74H266.189V65.93H268.424V68.135L268.004 67.49C268.284 66.94 268.679 66.525 269.189 66.245C269.709 65.955 270.299 65.81 270.959 65.81C271.699 65.81 272.344 66 272.894 66.38C273.454 66.75 273.824 67.32 274.004 68.09L273.179 67.865C273.449 67.235 273.879 66.735 274.469 66.365C275.069 65.995 275.754 65.81 276.524 65.81Z" fill="black"/>
</svg>
