<?xml version="1.0" encoding="UTF-8"?>
<!DOCTYPE svg PUBLIC "-//W3C//DTD SVG 1.1//EN" "http://www.w3.org/Graphics/SVG/1.1/DTD/svg11.dtd">
<!-- Creator: CorelDRAW -->
<svg xmlns="http://www.w3.org/2000/svg" xml:space="preserve" width="399.436mm" height="581.098mm" version="1.1" style="shape-rendering:geometricPrecision; text-rendering:geometricPrecision; image-rendering:optimizeQuality; fill-rule:evenodd; clip-rule:evenodd"
viewBox="0 0 42066.05 61197.63"
 xmlns:xlink="http://www.w3.org/1999/xlink"
 xmlns:xodm="http://www.corel.com/coreldraw/odm/2003">
 <defs>
  <style type="text/css">
   <![CDATA[
    .str0 {stroke:yellow;stroke-width:26.25;stroke-miterlimit:10}
    .fil5 {fill:none;fill-rule:nonzero}
    .fil2 {fill:red}
    .fil1 {fill:black;fill-rule:nonzero}
    .fil3 {fill:black;fill-rule:nonzero}
    .fil4 {fill:white;fill-rule:nonzero}
    .fil6 {fill:#1A1A1A;fill-opacity:0.321569}
    .fil0 {fill:url(#id0)}
   ]]>
  </style>
  <linearGradient id="id0" gradientUnits="userSpaceOnUse" x1="10250.18" y1="9213.61" x2="39794.6" y2="43877.39">
   <stop offset="0" style="stop-opacity:1; stop-color:#F50000"/>
   <stop offset="0.211765" style="stop-opacity:1; stop-color:#E70000"/>
   <stop offset="0.309804" style="stop-opacity:1; stop-color:#D90000"/>
   <stop offset="0.431373" style="stop-opacity:1; stop-color:#B70808"/>
   <stop offset="0.611765" style="stop-opacity:1; stop-color:#941111"/>
   <stop offset="0.811765" style="stop-opacity:1; stop-color:#AE0808"/>
   <stop offset="1" style="stop-opacity:1; stop-color:red"/>
  </linearGradient>
 </defs>
 <g id="Слой_x0020_1">
  <metadata id="CorelCorpID_0Corel-Layer"/>
  <g id="_2277426486752">
   <path class="fil0" d="M18013.06 52828.13l6144.18 -3305.3 11057.64 -12477.36c3142.52,-3545.98 5470.67,-6705.9 6320.64,-11504.05 328.27,-1853.12 401.99,-4063.5 -45.41,-6734.38 -1393.22,-8317.04 -7308.23,-15738.82 -15562.41,-17959.38 -2999.76,-807 -6594.52,-953.03 -10269.04,695.58l-7417.65 4009.84 7575.61 1662.29c0,0 5593.74,27165.85 2196.43,45612.75z"/>
   <path class="fil1" d="M18365.02 52340.44l5627.73 -3027.47 11025.69 -12441.3c1560.54,-1760.9 2918.46,-3425.23 3990.2,-5242.35 1065.53,-1806.61 1848.71,-3767.82 2267.71,-6133.14 162.27,-916 261.62,-1917.31 265.09,-3015.28 3.49,-1102.71 -89.01,-2308.44 -310.5,-3630.65 -703.46,-4199.49 -2572.5,-8167.88 -5319.77,-11338.29 -2629.77,-3034.8 -6064.46,-5337.7 -10051.34,-6410.26 -1593.88,-428.78 -3357.34,-668.12 -5209.92,-542.64 -1574.83,106.67 -3215.04,476.83 -4871.44,1218.1l-6790.13 3670.61 6883.82 1510.49c112.66,24.34 192.75,117.5 205.71,225.88 159.91,784 5448.09,26928.07 2287.16,45156.29zm5916.65 -2586.2l-6144.18 3305.3 -0.15 -0.27c-50.67,27.29 -110.6,38.19 -171.6,27.01 -142.56,-26.12 -236.96,-162.89 -210.84,-305.45 3237.88,-17581.31 -1702.75,-43051.79 -2161.3,-45345.08l-7408.13 -1625.55 0.06 -0.31c-72.55,-15.7 -138.03,-61.87 -175.94,-132.37 -68.72,-127.8 -20.83,-287.13 106.97,-355.84l7417.65 -4009.84 0.16 0.28c5.62,-3.02 11.39,-5.87 17.32,-8.51 1722.36,-772.75 3427.14,-1158.25 5063.24,-1269.06 1916.16,-129.79 3736.91,116.9 5380.63,559.09 4092.07,1100.85 7615.93,3462.81 10312.58,6574.8 2810.14,3242.97 4721.8,7301.35 5441.12,11595.41 225.92,1348.67 320.25,2583.59 316.67,3717.05 -3.6,1138.21 -105.25,2168.68 -271.26,3105.79 -430.95,2432.82 -1236.89,4450.67 -2333.53,6310.03 -1090.45,1848.85 -2467.88,3537.51 -4049.85,5322.58l-11047.01 12465.36c-21.76,27.87 -49.5,51.78 -82.63,69.59z"/>
   <path class="fil2" d="M18013.06 52828.13l-9750.97 -13650.85c0,0 -5696.34,-7405.68 -6615.4,-10783.83 -919.05,-3378.15 -1589.26,-5423.33 -1325.6,-8992.66 263.66,-3569.33 1086.62,-7801.06 5239.33,-11865.41 4152.7,-4064.35 10131.42,-4741.74 14608.11,-3386.96 10812.85,3272.31 17911.87,16272.13 14686.85,27060.45 -491.41,1643.9 -1377.24,3503.29 -2995.2,5898.04l-13847.11 15721.22z"/>
   <path class="fil3" d="M17789.38 52966.68l-9736.14 -13630.07c-18.69,-24.37 -5728.31,-7447.44 -6660.59,-10874.25 -172.1,-632.58 -194.96,-715.82 -214.21,-785.86 -812.34,-2955.73 -1365.32,-4967.82 -1119.62,-8294.22 133.33,-1805 408.65,-3778.99 1177.72,-5821.12 769.97,-2044.51 2032.89,-4150.91 4139.77,-6212.95 1981.46,-1939.3 4369.54,-3121.76 6816.71,-3689.15 2776.31,-643.7 5629.95,-495.46 8051.59,237.39 5481.11,1658.74 10017.97,5782.54 12771.69,10856.24 2747.6,5062.47 3722.27,11074.39 2091.02,16531.26 -249.12,833.39 -598.99,1722.92 -1092.63,2709.63 -491.93,983.28 -1123.44,2056.98 -1936.51,3260.41 -6.38,9.46 -13.26,18.37 -20.6,26.72l-13847.08 15721.24c-95.98,109.05 -262.22,119.64 -371.27,23.65 -19.94,-17.55 -36.56,-37.45 -49.87,-58.91zm-9313.38 -13941.61l9558.23 13381.01 13617.65 -15460.7c800.12,-1185.36 1417.47,-2234.14 1893.84,-3186.3 476.61,-952.66 815.39,-1814.81 1057.67,-2625.29 1589.89,-5318.5 636.06,-11185.09 -2047.82,-16130.16 -2690.84,-4957.84 -7118.46,-8985.78 -12463.16,-10603.24 -2340.28,-708.22 -5098.38,-851.41 -7782.13,-229.17 -2358.73,546.88 -4659.15,1685.27 -6565.77,3551.34 -2045.81,2002.29 -3270.75,4043.95 -4016.34,6023.72 -746.48,1982.15 -1014.5,3908.72 -1144.82,5673.03 -239.44,3241.7 303.5,5217.28 1101.11,8119.38 120.59,438.74 191.08,693.25 216.27,785.86 905.61,3328.79 6553.88,10672.11 6570.14,10693.32l-0.12 0.08 5.27 7.12z"/>
   <path class="fil4" d="M27354.45 19820.45c-2308.69,-262.1 -4227.23,1645.67 -4285.18,4261.13 -57.96,2615.47 1766.61,4948.2 4075.28,5210.3 2308.69,262.09 4227.23,-1645.68 4285.19,-4261.15 57.95,-2615.46 -1766.62,-4948.19 -4075.29,-5210.28zm-162.23 7320.39l0 0c-1063.09,-120.69 -1899.25,-1375.73 -1867.61,-2803.21 31.64,-1427.47 919.08,-2486.84 1982.17,-2366.15 1063.08,120.69 1899.24,1375.72 1867.6,2803.2 -31.64,1427.49 -919.08,2486.85 -1982.16,2366.16z"/>
   <path class="fil4" d="M22110.23 23433.19c-97.34,4776.27 -1774.18,8866.39 -7049.41,8267.5 -3920.05,-445.03 -7012.4,-4664.24 -6906.91,-9424.14 105.48,-4759.89 3368.85,-8257.82 7288.9,-7812.78 2156.09,244.78 3989.22,1505.41 5184.46,3382.13l-2226.11 2094.52c-678.54,-1195.22 -1757.17,-1934.24 -3033.63,-2079.16 -2238.24,-254.1 -4105.09,1910.09 -4169.87,4833.86 -64.8,2923.78 1696.99,5499.92 3935.24,5754.04 1634.75,185.58 2665.43,-472.11 3275.82,-1581.45 116.85,-212.37 181.09,-463.98 186.91,-726.85l3.63 -163.91 -3711.23 -421.33 65.05 -2935.19 7156.99 812.52c0.07,0.09 0.11,0.16 0.18,0.25z"/>
   <line class="fil5 str0" x1="18401.15" y1="19940.42" x2="18400.69" y2= "19940.65" />
   <path class="fil1" d="M9307.14 29459.25l-2266.15 2713.3 -409.2 -3292.02 2675.35 578.72zm-958.87 -13986.66c0,0 2878.47,-3737.72 7310.19,-3234.59 4194.68,476.22 6381.69,3638.29 6381.69,3638.29l890.43 -870.14c0,0 -2845.97,-4515.78 -7886.01,-5087.96 -5039.95,-572.18 -7772.04,2637.16 -8305.77,3134.31l1609.46 2420.09zm13495.53 1878.39l2451.63 -2465.56 190.77 3303.95 -2642.39 -838.39zm966.92 12654.79c0,0 -2604.56,4030.49 -7031.37,3964.92 -4190.03,-62.1 -6568.74,-3014.29 -6568.74,-3014.29l-824.67 960c0,0 3121.99,4243.62 8156.45,4318.26 5034.36,74.51 7529.14,-3411.96 8025.03,-3963.02l-1756.7 -2265.88z"/>
   <path class="fil6" d="M29767.54 59503.3c643.48,-1059.91 -2972.3,-1669.84 -3788.4,-1794.79 -2958.43,-452.9 -7584.1,-493.06 -10544.29,-62 -1126.29,164.02 -3865.29,592.15 -4256.63,1367.66 -573.06,1135.6 2865.8,1679.67 3772.84,1813.14 1724.73,253.85 3462.41,363.82 5247.18,370.15 2167.64,7.69 8690.35,-246.44 9569.3,-1694.16z"/>
  </g>
 </g>
</svg>
